<svg width="512" height="512" viewBox="0 0 512 512" xmlns="http://www.w3.org/2000/svg">
	<style>
		.symbol {
			fill: #101010;
		}

		@media (prefers-color-scheme: dark) {
			.symbol {
				fill: #fff;
			}
		}
	</style>
	<path
		d="M437.017 437.019C462.484 411.552 482.293 380.991 495.145 347.348C507.996 313.699 513.602 277.721 511.6 241.758L241.755 511.601C277.718 513.603 313.701 507.997 347.345 495.146C380.994 482.295 411.55 462.485 437.017 437.019Z"
		class="symbol" />
	<path
		d="M305.023 305.026L331.084 229.394C337.417 211.018 347.852 194.322 361.594 180.575L451.476 90.6938C475.827 119.489 493.516 153.311 503.28 189.74L437.022 255.997C423.28 269.739 406.584 280.174 388.208 286.507L312.57 312.568L286.509 388.2C280.175 406.575 269.746 423.272 255.999 437.014L189.741 503.271C153.312 493.512 119.489 475.823 90.6938 451.467L180.576 361.586C194.318 347.839 211.014 337.41 229.395 331.076L305.028 305.016L305.023 305.026Z"
		class="symbol" />
	<path
		d="M206.969 206.973L282.602 180.913C300.978 174.579 317.674 164.145 331.422 150.403L421.304 60.5218C392.509 36.1713 358.686 18.4818 322.257 8.71802L255.999 74.9755C242.257 88.7175 231.822 105.414 225.488 123.789L199.428 199.427L123.79 225.482C105.414 231.815 88.7174 242.245 74.9753 255.992L8.72226 322.255C18.481 358.683 36.1707 392.506 60.5266 421.3L150.409 331.419C164.156 317.677 174.585 300.981 180.919 282.6L206.98 206.968L206.969 206.973Z"
		class="symbol" />
	<path
		d="M74.9753 74.9806C100.442 49.5139 131.004 29.7048 164.647 16.8536C198.296 3.99741 234.28 -1.60896 270.243 0.39295L0.39199 270.241C-1.60994 234.278 3.99648 198.295 16.8477 164.652C29.699 131.003 49.5083 100.447 74.9753 74.9806Z"
		class="symbol" />
</svg>